<?xml version="1.0" encoding="UTF-8"?>
<svg viewBox="0 0 857 521" version="1.1" xmlns="http://www.w3.org/2000/svg" xmlns:xlink="http://www.w3.org/1999/xlink">
    <!-- Generator: Sketch 47.1 (45422) - http://www.bohemiancoding.com/sketch -->
    <title>404</title>
    <desc>Created with Sketch.</desc>
    <defs></defs>
    <g id="1220-4040" stroke="none" stroke-width="1" fill="none" fill-rule="evenodd">
        <g id="Desktop-HD" transform="translate(-291.000000, -221.000000)">
            <g id="404" transform="translate(291.000000, 221.000000)">
                <path d="M444.4889,190.8016 C444.4889,203.6616 434.0629,214.0876 421.2029,214.0876 C408.3429,214.0876 397.9169,203.6616 397.9169,190.8016 C397.9169,177.9416 408.3429,167.5166 421.2029,167.5166 C434.0629,167.5166 444.4889,177.9416 444.4889,190.8016" id="Fill-1" fill="#F2F4F8"></path>
                <path d="M377.2623,244.5291 C377.2623,252.1361 371.0943,258.3041 363.4863,258.3041 C355.8773,258.3041 349.7093,252.1361 349.7093,244.5291 C349.7093,236.9211 355.8773,230.7531 363.4863,230.7531 C371.0943,230.7531 377.2623,236.9211 377.2623,244.5291" id="Fill-3" fill="#F2F4F8"></path>
                <path d="M334.9821,217.323 C334.9821,219.618 333.1221,221.478 330.8271,221.478 C328.5321,221.478 326.6711,219.618 326.6711,217.323 C326.6711,215.028 328.5321,213.168 330.8271,213.168 C333.1221,213.168 334.9821,215.028 334.9821,217.323" id="Fill-5" fill="#D6E0E5"></path>
                <path d="M466.5582,244.5291 C466.5582,252.1361 460.3902,258.3041 452.7822,258.3041 C445.1742,258.3041 439.0062,252.1361 439.0062,244.5291 C439.0062,236.9211 445.1742,230.7531 452.7822,230.7531 C460.3902,230.7531 466.5582,236.9211 466.5582,244.5291" id="Fill-7" fill="#F2F4F8"></path>
                <path d="M481.5582,306.6121 C481.5582,314.2201 475.3902,320.3881 467.7822,320.3881 C460.1742,320.3881 454.0062,314.2201 454.0062,306.6121 C454.0062,299.0041 460.1742,292.8361 467.7822,292.8361 C475.3902,292.8361 481.5582,299.0041 481.5582,306.6121" id="Fill-9" fill="#F2F4F8"></path>
                <path d="M422.3903,274.074 C422.3903,285.252 413.3283,294.313 402.1513,294.313 C390.9733,294.313 381.9123,285.252 381.9123,274.074 C381.9123,262.896 390.9733,253.835 402.1513,253.835 C413.3283,253.835 422.3903,262.896 422.3903,274.074" id="Fill-11" fill="#F2F4F8"></path>
                <path d="M531.8463,244.5291 C531.8463,305.6341 482.3093,355.1721 421.2023,355.1721 C360.0963,355.1721 310.5603,305.6341 310.5603,244.5291 C310.5603,183.4231 360.0963,133.8851 421.2023,133.8851 C482.3093,133.8851 531.8463,183.4231 531.8463,244.5291 Z" id="Stroke-13" stroke="#333333" stroke-width="6"></path>
                <path d="M420.8932,137.202 C417.1372,137.202 413.4282,137.4 409.7722,137.774 C463.9932,143.327 506.2892,189.015 506.2892,244.564 C506.2892,300.112 463.9932,345.802 409.7722,351.353 C413.4282,351.727 417.1372,351.926 420.8932,351.926 C480.3392,351.926 528.5302,303.858 528.5302,244.564 C528.5302,185.27 480.3392,137.202 420.8932,137.202" id="Fill-15" fill="#F2F4F8"></path>
                <path d="M444.4889,190.8016 C444.4889,203.6616 434.0629,214.0876 421.2029,214.0876 C408.3429,214.0876 397.9169,203.6616 397.9169,190.8016 C397.9169,177.9416 408.3429,167.5166 421.2029,167.5166 C434.0629,167.5166 444.4889,177.9416 444.4889,190.8016 Z" id="Stroke-17" stroke="#333333" stroke-width="6"></path>
                <path d="M466.4547,244.5643 C466.4547,252.1153 460.3337,258.2363 452.7817,258.2363 C445.2307,258.2363 439.1097,252.1153 439.1097,244.5643 C439.1097,237.0123 445.2307,230.8913 452.7817,230.8913 C460.3337,230.8913 466.4547,237.0123 466.4547,244.5643 Z" id="Stroke-19" stroke="#333333" stroke-width="6"></path>
                <path d="M377.1588,244.5291 C377.1588,252.0801 371.0378,258.2011 363.4858,258.2011 C355.9348,258.2011 349.8128,252.0801 349.8128,244.5291 C349.8128,236.9771 355.9348,230.8561 363.4858,230.8561 C371.0378,230.8561 377.1588,236.9771 377.1588,244.5291 Z" id="Stroke-21" stroke="#333333" stroke-width="6"></path>
                <path d="M336.1412,217.323 C336.1412,220.259 333.7622,222.637 330.8272,222.637 C327.8922,222.637 325.5122,220.259 325.5122,217.323 C325.5122,214.388 327.8922,212.01 330.8272,212.01 C333.7622,212.01 336.1412,214.388 336.1412,217.323 Z" id="Stroke-23" stroke="#333333" stroke-width="6"></path>
                <path d="M480.1276,306.6121 C480.1276,314.1631 474.0056,320.2851 466.4546,320.2851 C458.9036,320.2851 452.7816,314.1631 452.7816,306.6121 C452.7816,299.0611 458.9036,292.9391 466.4546,292.9391 C474.0056,292.9391 480.1276,299.0611 480.1276,306.6121 Z" id="Stroke-25" stroke="#333333" stroke-width="6"></path>
                <path d="M423.36,274.074 C423.36,285.787 413.865,295.282 402.151,295.282 C390.438,295.282 380.943,285.787 380.943,274.074 C380.943,262.36 390.438,252.865 402.151,252.865 C413.865,252.865 423.36,262.36 423.36,274.074 Z" id="Stroke-27" stroke="#333333" stroke-width="6"></path>
                <path d="M220.151,278.7859 L220.151,230.3839 C220.151,217.9469 221.16,198.4519 221.832,186.0149 L220.487,186.0149 C215.109,197.1059 209.059,207.8629 203.008,219.2919 L164.017,278.7859 L220.151,278.7859 Z M220.151,308.7029 L125.698,308.7029 L125.698,282.4849 L210.403,150.0479 L256.454,150.0479 L256.454,278.7859 L283.344,278.7859 L283.344,308.7029 L256.454,308.7029 L256.454,363.8289 L220.151,363.8289 L220.151,308.7029 Z" id="Fill-29" fill="#333333"></path>
                <path d="M647.6764,278.7859 L647.6764,230.3839 C647.6764,217.9469 648.6854,198.4519 649.3574,186.0149 L648.0124,186.0149 C642.6344,197.1059 636.5844,207.8629 630.5334,219.2919 L591.5424,278.7859 L647.6764,278.7859 Z M647.6764,308.7029 L553.2234,308.7029 L553.2234,282.4849 L637.9284,150.0479 L683.9794,150.0479 L683.9794,278.7859 L710.8694,278.7859 L710.8694,308.7029 L683.9794,308.7029 L683.9794,363.8289 L647.6764,363.8289 L647.6764,308.7029 Z" id="Fill-31" fill="#333333"></path>
                <path d="M629.2662,453.6482 C629.2662,455.8632 627.5702,457.6592 625.4782,457.6592 C623.3862,457.6592 621.6902,455.8632 621.6902,453.6482 C621.6902,451.4332 623.3862,449.6372 625.4782,449.6372 C627.5702,449.6372 629.2662,451.4332 629.2662,453.6482" id="Fill-45" fill="#333333"></path>
                <path d="M282.2692,396.0164 C282.2692,398.2324 280.5742,400.0274 278.4822,400.0274 C276.3892,400.0274 274.6942,398.2324 274.6942,396.0164 C274.6942,393.8014 276.3892,392.0054 278.4822,392.0054 C280.5742,392.0054 282.2692,393.8014 282.2692,396.0164" id="Fill-47" fill="#333333"></path>
                <path d="M427.576,453.012 C427.576,455.227 425.88,457.023 423.788,457.023 C421.696,457.023 420,455.227 420,453.012 C420,450.796 421.696,449 423.788,449 C425.88,449 427.576,450.796 427.576,453.012" id="Fill-49" fill="#333333"></path>
                <path d="M59.2291,328.1238 C59.2291,330.3388 57.5331,332.1348 55.4411,332.1348 C53.3491,332.1348 51.6531,330.3388 51.6531,328.1238 C51.6531,325.9078 53.3491,324.1128 55.4411,324.1128 C57.5331,324.1128 59.2291,325.9078 59.2291,328.1238" id="Fill-51" fill="#333333"></path>
                <path d="M236.5207,441.011 C236.5207,443.227 234.8257,445.022 232.7337,445.022 C230.6417,445.022 228.9457,443.227 228.9457,441.011 C228.9457,438.796 230.6417,437 232.7337,437 C234.8257,437 236.5207,438.796 236.5207,441.011" id="Fill-53" fill="#333333"></path>
                <path d="M132.6735,383.4373 C132.6735,385.6533 130.9775,387.4483 128.8855,387.4483 C126.7935,387.4483 125.0985,385.6533 125.0985,383.4373 C125.0985,381.2223 126.7935,379.4263 128.8855,379.4263 C130.9775,379.4263 132.6735,381.2223 132.6735,383.4373" id="Fill-55" fill="#333333"></path>
                <path d="M842.9391,379.4266 C842.9391,381.6416 841.2441,383.4376 839.1521,383.4376 C837.0591,383.4376 835.3641,381.6416 835.3641,379.4266 C835.3641,377.2106 837.0591,375.4146 839.1521,375.4146 C841.2441,375.4146 842.9391,377.2106 842.9391,379.4266" id="Fill-57" fill="#333333"></path>
                <path d="M856.9391,303.5281 C856.9391,305.7441 855.2441,307.5401 853.1521,307.5401 C851.0591,307.5401 849.3641,305.7441 849.3641,303.5281 C849.3641,301.3131 851.0591,299.5171 853.1521,299.5171 C855.2441,299.5171 856.9391,301.3131 856.9391,303.5281" id="Fill-59" fill="#333333"></path>
                <path d="M233.5207,517.011 C233.5207,519.226 231.8247,521.022 229.7327,521.022 C227.6407,521.022 225.9457,519.226 225.9457,517.011 C225.9457,514.795 227.6407,513 229.7327,513 C231.8247,513 233.5207,514.795 233.5207,517.011" id="Fill-62" fill="#333333"></path>
                <path d="M172.5207,468.011 C172.5207,470.226 170.8247,472.022 168.7327,472.022 C166.6407,472.022 164.9457,470.226 164.9457,468.011 C164.9457,465.795 166.6407,464 168.7327,464 C170.8247,464 172.5207,465.795 172.5207,468.011" id="Fill-64" fill="#333333"></path>
                <path d="M208.3092,4.011 C208.3092,6.226 206.6132,8.022 204.5212,8.022 C202.4292,8.022 200.7332,6.226 200.7332,4.011 C200.7332,1.796 202.4292,0 204.5212,0 C206.6132,0 208.3092,1.796 208.3092,4.011" id="Fill-66" fill="#333333"></path>
                <path d="M226.2467,92.5799 C226.2467,94.7949 224.5517,96.5909 222.4587,96.5909 C220.3667,96.5909 218.6717,94.7949 218.6717,92.5799 C218.6717,90.3639 220.3667,88.5679 222.4587,88.5679 C224.5517,88.5679 226.2467,90.3639 226.2467,92.5799" id="Fill-68" fill="#333333"></path>
                <path d="M98.3532,98.5057 C98.3532,100.7217 96.6572,102.5177 94.5652,102.5177 C92.4732,102.5177 90.7772,100.7217 90.7772,98.5057 C90.7772,96.2907 92.4732,94.4947 94.5652,94.4947 C96.6572,94.4947 98.3532,96.2907 98.3532,98.5057" id="Fill-70" fill="#333333"></path>
                <path d="M456.0406,407.6443 C456.0406,409.8593 454.3446,411.6553 452.2526,411.6553 C450.1606,411.6553 448.4646,409.8593 448.4646,407.6443 C448.4646,405.4293 450.1606,403.6333 452.2526,403.6333 C454.3446,403.6333 456.0406,405.4293 456.0406,407.6443" id="Fill-72" fill="#333333"></path>
                <path d="M550.1129,379.4266 C550.1129,381.6416 548.4169,383.4376 546.3249,383.4376 C544.2329,383.4376 542.5369,381.6416 542.5369,379.4266 C542.5369,377.2106 544.2329,375.4146 546.3249,375.4146 C548.4169,375.4146 550.1129,377.2106 550.1129,379.4266" id="Fill-74" fill="#333333"></path>
                <path d="M310.575,505.011 C310.575,507.226 308.88,509.022 306.787,509.022 C304.695,509.022 303,507.226 303,505.011 C303,502.796 304.695,501 306.787,501 C308.88,501 310.575,502.796 310.575,505.011" id="Fill-76" fill="#333333"></path>
                <path d="M7.5758,303.5281 C7.5758,305.7441 5.8798,307.5401 3.7878,307.5401 C1.6958,307.5401 -0.0002,305.7441 -0.0002,303.5281 C-0.0002,301.3131 1.6958,299.5171 3.7878,299.5171 C5.8798,299.5171 7.5758,301.3131 7.5758,303.5281" id="Fill-78" fill="#333333"></path>
                <path d="M489.575,496.012 C489.575,498.227 487.879,500.023 485.787,500.023 C483.695,500.023 482,498.227 482,496.012 C482,493.796 483.695,492 485.787,492 C487.879,492 489.575,493.796 489.575,496.012" id="Fill-81" fill="#333333"></path>
                <path d="M381.2203,36.5965 C381.2203,38.8115 379.5243,40.6075 377.4323,40.6075 C375.3403,40.6075 373.6453,38.8115 373.6453,36.5965 C373.6453,34.3815 375.3403,32.5855 377.4323,32.5855 C379.5243,32.5855 381.2203,34.3815 381.2203,36.5965" id="Fill-83" fill="#333333"></path>
                <path d="M322.4508,40.6072 C322.4508,42.8232 320.7558,44.6192 318.6638,44.6192 C316.5718,44.6192 314.8758,42.8232 314.8758,40.6072 C314.8758,38.3922 316.5718,36.5962 318.6638,36.5962 C320.7558,36.5962 322.4508,38.3922 322.4508,40.6072" id="Fill-85" fill="#333333"></path>
                <path d="M696.278,65.2312 C696.278,67.4472 694.583,69.2432 692.49,69.2432 C690.398,69.2432 688.703,67.4472 688.703,65.2312 C688.703,63.0162 690.398,61.2202 692.49,61.2202 C694.583,61.2202 696.278,63.0162 696.278,65.2312" id="Fill-87" fill="#333333"></path>
                <path d="M788.6129,102.5174 C788.6129,104.7324 786.9179,106.5284 784.8259,106.5284 C782.7339,106.5284 781.0379,104.7324 781.0379,102.5174 C781.0379,100.3014 782.7339,98.5054 784.8259,98.5054 C786.9179,98.5054 788.6129,100.3014 788.6129,102.5174" id="Fill-89" fill="#333333"></path>
                <path d="M756.6764,12.033 C756.6764,14.248 754.9814,16.044 752.8884,16.044 C750.7964,16.044 749.1014,14.248 749.1014,12.033 C749.1014,9.818 750.7964,8.022 752.8884,8.022 C754.9814,8.022 756.6764,9.818 756.6764,12.033" id="Fill-91" fill="#333333"></path>
                <path d="M792.401,261.9998 C792.401,264.2148 790.705,266.0108 788.613,266.0108 C786.521,266.0108 784.826,264.2148 784.826,261.9998 C784.826,259.7848 786.521,257.9888 788.613,257.9888 C790.705,257.9888 792.401,259.7848 792.401,261.9998" id="Fill-93" fill="#333333"></path>
                <path d="M562.2535,90.8738 C562.2535,93.0888 560.5585,94.8848 558.4665,94.8848 C556.3735,94.8848 554.6785,93.0888 554.6785,90.8738 C554.6785,88.6588 556.3735,86.8628 558.4665,86.8628 C560.5585,86.8628 562.2535,88.6588 562.2535,90.8738" id="Fill-95" fill="#333333"></path>
                <path d="M565.575,488.011 C565.575,490.227 563.879,492.023 561.787,492.023 C559.695,492.023 558,490.227 558,488.011 C558,485.796 559.695,484 561.787,484 C563.879,484 565.575,485.796 565.575,488.011" id="Fill-97" fill="#333333"></path>
                <path d="M13.0084,386.7889 C13.0084,390.1059 10.4694,392.7949 7.3374,392.7949 C4.2044,392.7949 1.6654,390.1059 1.6654,386.7889 C1.6654,383.4729 4.2044,380.7829 7.3374,380.7829 C10.4694,380.7829 13.0084,383.4729 13.0084,386.7889" id="Fill-99" fill="#333333"></path>
                <path d="M655.028,102.5174 C655.028,105.8334 652.489,108.5224 649.357,108.5224 C646.224,108.5224 643.685,105.8334 643.685,102.5174 C643.685,99.2004 646.224,96.5104 649.357,96.5104 C652.489,96.5104 655.028,99.2004 655.028,102.5174" id="Fill-101" fill="#333333"></path>
                <path d="M324.3346,126.0926 C324.3346,129.4086 321.7956,132.0986 318.6636,132.0986 C315.5306,132.0986 312.9916,129.4086 312.9916,126.0926 C312.9916,122.7756 315.5306,120.0856 318.6636,120.0856 C321.7956,120.0856 324.3346,122.7756 324.3346,126.0926" id="Fill-103" fill="#333333"></path>
                <path d="M776.11,351.9256 C776.11,355.2426 773.571,357.9316 770.438,357.9316 C767.306,357.9316 764.767,355.2426 764.767,351.9256 C764.767,348.6086 767.306,345.9196 770.438,345.9196 C773.571,345.9196 776.11,348.6086 776.11,351.9256" id="Fill-105" fill="#333333"></path>
                <path d="M642.86,42.6023 C642.86,45.9193 640.321,48.6083 637.189,48.6083 C634.056,48.6083 631.517,45.9193 631.517,42.6023 C631.517,39.2853 634.056,36.5963 637.189,36.5963 C640.321,36.5963 642.86,39.2853 642.86,42.6023" id="Fill-107" fill="#333333"></path>
                <path d="M480.6403,50.5125 C480.6403,53.8285 478.1003,56.5185 474.9683,56.5185 C471.8363,56.5185 469.2963,53.8285 469.2963,50.5125 C469.2963,47.1955 471.8363,44.5065 474.9683,44.5065 C478.1003,44.5065 480.6403,47.1955 480.6403,50.5125" id="Fill-109" fill="#333333"></path>
                <path d="M142.1325,88.5682 C142.1325,91.8852 139.5935,94.5742 136.4605,94.5742 C133.3285,94.5742 130.7895,91.8852 130.7895,88.5682 C130.7895,85.2522 133.3285,82.5622 136.4605,82.5622 C139.5935,82.5622 142.1325,85.2522 142.1325,88.5682" id="Fill-111" fill="#333333"></path>
                <path d="M732.5055,170.6131 C738.0725,172.9931 742.1015,178.0881 744.3095,185.5251 C745.5595,181.4441 747.5255,177.9011 750.1155,175.1901 C751.9245,173.2971 754.0245,171.8261 756.3575,170.8021 C754.2195,169.8361 752.2705,168.4711 750.5615,166.7301 C747.7495,163.8661 745.6285,160.0671 744.3115,155.6751 C742.0685,162.7801 737.9605,167.9871 732.5055,170.6131 L732.5055,170.6131 Z M742.7675,198.3381 C742.7635,198.2601 742.7615,198.1841 742.7575,198.1071 C742.3815,188.4171 739.4845,172.5281 724.5795,172.5281 C724.4665,172.5281 724.3545,172.5291 724.2405,172.5301 L724.1795,169.0811 C735.0725,168.8681 742.3685,158.8141 742.7665,143.4701 L746.2145,143.5571 L746.2145,143.5591 L746.2145,143.5601 C746.0065,152.0011 748.5515,159.7581 753.0235,164.3131 C756.1295,167.4771 760.0355,169.0811 764.6345,169.0811 C764.6755,169.0811 764.7525,169.0751 764.7575,169.0811 L764.7775,172.5311 L764.7765,172.5311 C759.8715,172.5601 755.7775,174.2571 752.6095,177.5731 C748.2465,182.1401 745.9175,189.5651 746.2045,197.9711 C746.2085,198.0501 746.2105,198.1291 746.2145,198.2081 L742.7675,198.3381 Z" id="Fill-115" fill="#333333"></path>
                <path d="M688.277,495.754 C687.793,482.066 683.049,468.051 668,468.291 C680.246,468.051 687.865,456.91 688.277,441 C687.937,454.754 694.549,468.377 708.554,468.291 C694.19,468.377 687.721,481.779 688.277,495.754" id="Fill-117" fill="#333333"></path>
                <path d="M88.1432,239.3738 C87.6592,225.6858 82.9142,211.6708 67.8662,211.9108 C80.1122,211.6708 87.7312,200.5298 88.1422,184.6198 C87.8022,198.3738 94.4142,211.9968 108.4192,211.9108 C94.0552,211.9968 87.5862,225.3988 88.1432,239.3738" id="Fill-121" fill="#333333"></path>
                <path d="M331.152368,456.787854 C335.266016,458.522928 338.243922,462.237297 339.874751,467.659765 C340.798419,464.683896 342.251164,462.10097 344.165004,460.12459 C345.501736,458.744551 347.053499,457.672159 348.777433,456.92564 C347.197591,456.221404 345.757408,455.226289 344.494569,453.957061 C342.416685,451.86914 340.849405,449.099584 339.876228,445.897718 C338.218798,451.077422 335.183256,454.873442 331.152368,456.787854 L331.152368,456.787854 Z M338.735314,477 C338.732358,476.943865 338.73088,476.887731 338.727924,476.832325 C338.450085,469.767369 336.309392,458.183932 325.295574,458.183932 C325.212074,458.183932 325.130052,458.184661 325.045075,458.18539 L325,455.671721 C333.049213,455.51571 338.440479,448.186848 338.734575,437 L341.282421,437.063425 L341.282421,437.064883 L341.282421,437.065612 C341.128722,443.21929 343.01005,448.874317 346.313825,452.195013 C348.608956,454.50164 351.495234,455.671721 354.893593,455.671721 C354.92389,455.671721 354.981527,455.666618 354.984482,455.670992 L355,458.186119 L354.999261,458.186119 C351.374788,458.207261 348.348851,459.444412 346.007907,461.86185 C342.783936,465.192024 341.062957,470.604287 341.27577,476.732449 C341.277987,476.790042 341.280204,476.848363 341.282421,476.905227 L338.735314,477 Z" id="Fill-127" fill="#333333"></path>
                <path d="M784.8258,436.8289 C784.8258,439.3779 782.7608,441.4429 780.2118,441.4429 C777.6638,441.4429 775.5978,439.3779 775.5978,436.8289 C775.5978,434.2809 777.6638,432.2159 780.2118,432.2159 C782.7608,432.2159 784.8258,434.2809 784.8258,436.8289" id="Fill-129" fill="#333333"></path>
            </g>
        </g>
    </g>
</svg>
